<svg width="50" height="50" viewBox="0 0 50 50" fill="none" xmlns="http://www.w3.org/2000/svg">
<path d="M14.2267 39.1709V38.1641L15.9998 41.5349L15.1751 42.0602L14.8452 43.0232L15.5875 43.5486L15.3813 43.8112L13.7027 43.1977L12.9072 42.1477L14.2267 39.1709Z" fill="#FFBA44"/>
<path d="M14.2267 39.1709V38.1641L15.9998 41.5349L15.1751 42.0602L14.8452 43.0232L15.5875 43.5486L15.3813 43.8112L13.7027 43.1977L12.9072 42.1477L14.2267 39.1709Z" fill="#FFBA44"/>
<path d="M26.721 43.067L26.02 40.6593L27.0921 42.4104L29.4014 43.4172H27.0921L26.721 43.067Z" fill="#FFBA44"/>
<path d="M26.721 43.067L26.02 40.6593L27.0921 42.4104L29.4014 43.4172H27.0921L26.721 43.067Z" fill="#FFBA44"/>
<path fill-rule="evenodd" clip-rule="evenodd" d="M18.0206 43.8112L13.9795 36.3692L14.598 36.1503V33.9614L14.1444 35.8001H14.062L14.3094 33.5674L15.9588 31.7726L19.5875 30.9407L25.2369 31.026L26.9688 30.6321L32.6181 31.006L36.2469 32.9322L38.1438 35.0334L37.7314 35.515L37.0304 35.7339V36.0403L30.0217 36.3692L29.7317 37.5641L30.68 40.3659L34.0201 43.461V43.7237H31.8758L30.5151 43.3734L27.5049 41.8851L25.4018 38.6455L24.3297 36.1503L24.8245 38.7331L20.4123 39.1271L18.8453 35.8001L19.7938 39.1271L19.5875 43.067L21.2783 43.5923L21.072 43.8988L18.0206 43.8112ZM33.6078 33.1073L33.6902 32.976L33.4428 32.5382L33.6902 32.0128L34.1851 32.3631L34.2675 32.2756L33.7315 31.6189L33.1954 31.8816L33.0717 32.5382L33.6078 33.1073ZM36.3294 33.6327L36.1232 33.5451L36.3294 33.2825L36.6181 33.6327H36.3294Z" fill="#FFBA44"/>
<path fill-rule="evenodd" clip-rule="evenodd" d="M18.0206 43.8112L13.9795 36.3692L14.598 36.1503V33.9614L14.1444 35.8001H14.062L14.3094 33.5674L15.9588 31.7726L19.5875 30.9407L25.2369 31.026L26.9688 30.6321L32.6181 31.006L36.2469 32.9322L38.1438 35.0334L37.7314 35.515L37.0304 35.7339V36.0403L30.0217 36.3692L29.7317 37.5641L30.68 40.3659L34.0201 43.461V43.7237H31.8758L30.5151 43.3734L27.5049 41.8851L25.4018 38.6455L24.3297 36.1503L24.8245 38.7331L20.4123 39.1271L18.8453 35.8001L19.7938 39.1271L19.5875 43.067L21.2783 43.5923L21.072 43.8988L18.0206 43.8112ZM33.6078 33.1073L33.6902 32.976L33.4428 32.5382L33.6902 32.0128L34.1851 32.3631L34.2675 32.2756L33.7315 31.6189L33.1954 31.8816L33.0717 32.5382L33.6078 33.1073ZM36.3294 33.6327L36.1232 33.5451L36.3294 33.2825L36.6181 33.6327H36.3294Z" fill="#FFBA44"/>
<path d="M35.9139 43.791L16.1504 43.8678L25.8552 47.6739L35.9139 43.791Z" fill="#FFBA44"/>
<path d="M35.9139 43.791L16.1504 43.8678L25.8552 47.6739L35.9139 43.791Z" fill="#FFBA44"/>
<path d="M17.6218 16.1259C17.8908 16.1869 18.1068 16.3301 18.27 16.5553C18.4331 16.7759 18.5146 17.0291 18.5146 17.3154C18.5146 17.7283 18.378 18.0567 18.1046 18.3008C17.8357 18.5401 17.4587 18.6598 16.9737 18.6598H14.811V13.7188H16.9009C17.3727 13.7188 17.7408 13.8337 18.0054 14.0637C18.2743 14.2936 18.4088 14.6057 18.4088 14.9998C18.4088 15.2907 18.336 15.5323 18.1906 15.7247C18.0495 15.9171 17.8599 16.0509 17.6218 16.1259ZM15.9419 15.7177H16.6827C16.8679 15.7177 17.009 15.6754 17.106 15.591C17.2074 15.502 17.2581 15.3728 17.2581 15.2038C17.2581 15.0349 17.2074 14.9059 17.106 14.8167C17.009 14.7276 16.8679 14.683 16.6827 14.683H15.9419V15.7177ZM16.7752 17.6884C16.9649 17.6884 17.1103 17.6438 17.2118 17.5546C17.3176 17.4608 17.3705 17.3272 17.3705 17.1535C17.3705 16.9799 17.3153 16.8438 17.2052 16.7453C17.0994 16.6468 16.9516 16.5975 16.7621 16.5975H15.9419V17.6884H16.7752Z" fill="#FFBA44"/>
<path d="M17.6218 16.1259C17.8908 16.1869 18.1068 16.3301 18.27 16.5553C18.4331 16.7759 18.5146 17.0291 18.5146 17.3154C18.5146 17.7283 18.378 18.0567 18.1046 18.3008C17.8357 18.5401 17.4587 18.6598 16.9737 18.6598H14.811V13.7188H16.9009C17.3727 13.7188 17.7408 13.8337 18.0054 14.0637C18.2743 14.2936 18.4088 14.6057 18.4088 14.9998C18.4088 15.2907 18.336 15.5323 18.1906 15.7247C18.0495 15.9171 17.8599 16.0509 17.6218 16.1259ZM15.9419 15.7177H16.6827C16.8679 15.7177 17.009 15.6754 17.106 15.591C17.2074 15.502 17.2581 15.3728 17.2581 15.2038C17.2581 15.0349 17.2074 14.9059 17.106 14.8167C17.009 14.7276 16.8679 14.683 16.6827 14.683H15.9419V15.7177ZM16.7752 17.6884C16.9649 17.6884 17.1103 17.6438 17.2118 17.5546C17.3176 17.4608 17.3705 17.3272 17.3705 17.1535C17.3705 16.9799 17.3153 16.8438 17.2052 16.7453C17.0994 16.6468 16.9516 16.5975 16.7621 16.5975H15.9419V17.6884H16.7752Z" fill="#FFBA44"/>
<path d="M22.0011 18.6598L21.0354 16.7946H20.7643V18.6598H19.6333V13.7188H21.5314C21.8974 13.7188 22.2083 13.7868 22.464 13.9229C22.7241 14.0589 22.9181 14.2467 23.046 14.4859C23.1738 14.7205 23.2378 14.9834 23.2378 15.2743C23.2378 15.6027 23.1496 15.896 22.9733 16.1542C22.8013 16.4121 22.5456 16.5951 22.206 16.7031L23.2775 18.6598H22.0011ZM20.7643 15.9429H21.4654C21.6726 15.9429 21.8269 15.889 21.9283 15.781C22.0342 15.6731 22.0871 15.5206 22.0871 15.3236C22.0871 15.1358 22.0342 14.988 21.9283 14.8802C21.8269 14.7722 21.6726 14.7183 21.4654 14.7183H20.7643V15.9429Z" fill="#FFBA44"/>
<path d="M22.0011 18.6598L21.0354 16.7946H20.7643V18.6598H19.6333V13.7188H21.5314C21.8974 13.7188 22.2083 13.7868 22.464 13.9229C22.7241 14.0589 22.9181 14.2467 23.046 14.4859C23.1738 14.7205 23.2378 14.9834 23.2378 15.2743C23.2378 15.6027 23.1496 15.896 22.9733 16.1542C22.8013 16.4121 22.5456 16.5951 22.206 16.7031L23.2775 18.6598H22.0011ZM20.7643 15.9429H21.4654C21.6726 15.9429 21.8269 15.889 21.9283 15.781C22.0342 15.6731 22.0871 15.5206 22.0871 15.3236C22.0871 15.1358 22.0342 14.988 21.9283 14.8802C21.8269 14.7722 21.6726 14.7183 21.4654 14.7183H20.7643V15.9429Z" fill="#FFBA44"/>
<path d="M25.522 13.7188V16.6749C25.522 16.9705 25.5904 17.1981 25.7271 17.3576C25.8637 17.5171 26.0644 17.597 26.3289 17.597C26.5934 17.597 26.7962 17.5171 26.9373 17.3576C27.0784 17.1981 27.149 16.9705 27.149 16.6749V13.7188H28.2799V16.6679C28.2799 17.1091 28.1917 17.482 28.0154 17.7871C27.839 18.0921 27.601 18.3218 27.3011 18.4767C27.0057 18.6316 26.675 18.709 26.309 18.709C25.9431 18.709 25.6146 18.6339 25.3236 18.4837C25.037 18.329 24.8099 18.0991 24.6424 17.7941C24.4749 17.4844 24.3911 17.1091 24.3911 16.6679V13.7188H25.522Z" fill="#FFBA44"/>
<path d="M25.522 13.7188V16.6749C25.522 16.9705 25.5904 17.1981 25.7271 17.3576C25.8637 17.5171 26.0644 17.597 26.3289 17.597C26.5934 17.597 26.7962 17.5171 26.9373 17.3576C27.0784 17.1981 27.149 16.9705 27.149 16.6749V13.7188H28.2799V16.6679C28.2799 17.1091 28.1917 17.482 28.0154 17.7871C27.839 18.0921 27.601 18.3218 27.3011 18.4767C27.0057 18.6316 26.675 18.709 26.309 18.709C25.9431 18.709 25.6146 18.6339 25.3236 18.4837C25.037 18.329 24.8099 18.0991 24.6424 17.7941C24.4749 17.4844 24.3911 17.1091 24.3911 16.6679V13.7188H25.522Z" fill="#FFBA44"/>
<path d="M30.6679 13.7188V18.6598H29.5371V13.7188H30.6679Z" fill="#FFBA44"/>
<path d="M30.6679 13.7188V18.6598H29.5371V13.7188H30.6679Z" fill="#FFBA44"/>
<path d="M36.1036 18.6598H34.9726L33.0811 15.6121V18.6598H31.9502V13.7188H33.0811L34.9726 16.7804V13.7188H36.1036V18.6598Z" fill="#FFBA44"/>
<path d="M36.1036 18.6598H34.9726L33.0811 15.6121V18.6598H31.9502V13.7188H33.0811L34.9726 16.7804V13.7188H36.1036V18.6598Z" fill="#FFBA44"/>
<path d="M14.6904 29.7632L13.9745 28.5085C13.8132 28.5384 13.6272 28.5534 13.4166 28.5534C12.7148 28.5534 12.0691 28.3778 11.4796 28.0268C10.8971 27.6757 10.4339 27.1902 10.09 26.5704C9.74611 25.9505 9.57422 25.2521 9.57422 24.4754C9.57422 23.6986 9.74611 23.0003 10.09 22.3805C10.4339 21.7605 10.8971 21.2788 11.4796 20.9353C12.0691 20.5842 12.7148 20.4087 13.4166 20.4087C14.1184 20.4087 14.7606 20.5842 15.3431 20.9353C15.9255 21.2788 16.3852 21.7605 16.7221 22.3805C17.066 23.0003 17.2379 23.6986 17.2379 24.4754C17.2379 25.1103 17.1222 25.6965 16.8905 26.2343C16.6589 26.7645 16.3396 27.2165 15.9325 27.5899L17.4484 29.7632H14.6904ZM11.9534 24.4754C11.9534 25.0132 12.0796 25.4426 12.3323 25.7638C12.585 26.0775 12.9464 26.2343 13.4166 26.2343C13.8797 26.2343 14.2377 26.0775 14.4904 25.7638C14.743 25.4426 14.8693 25.0132 14.8693 24.4754C14.8693 23.9302 14.743 23.5007 14.4904 23.187C14.2377 22.8659 13.8797 22.7053 13.4166 22.7053C12.9464 22.7053 12.585 22.8659 12.3323 23.187C12.0796 23.5007 11.9534 23.9302 11.9534 24.4754Z" fill="#FFBA44"/>
<path d="M14.6904 29.7632L13.9745 28.5085C13.8132 28.5384 13.6272 28.5534 13.4166 28.5534C12.7148 28.5534 12.0691 28.3778 11.4796 28.0268C10.8971 27.6757 10.4339 27.1902 10.09 26.5704C9.74611 25.9505 9.57422 25.2521 9.57422 24.4754C9.57422 23.6986 9.74611 23.0003 10.09 22.3805C10.4339 21.7605 10.8971 21.2788 11.4796 20.9353C12.0691 20.5842 12.7148 20.4087 13.4166 20.4087C14.1184 20.4087 14.7606 20.5842 15.3431 20.9353C15.9255 21.2788 16.3852 21.7605 16.7221 22.3805C17.066 23.0003 17.2379 23.6986 17.2379 24.4754C17.2379 25.1103 17.1222 25.6965 16.8905 26.2343C16.6589 26.7645 16.3396 27.2165 15.9325 27.5899L17.4484 29.7632H14.6904ZM11.9534 24.4754C11.9534 25.0132 12.0796 25.4426 12.3323 25.7638C12.585 26.0775 12.9464 26.2343 13.4166 26.2343C13.8797 26.2343 14.2377 26.0775 14.4904 25.7638C14.743 25.4426 14.8693 25.0132 14.8693 24.4754C14.8693 23.9302 14.743 23.5007 14.4904 23.187C14.2377 22.8659 13.8797 22.7053 13.4166 22.7053C12.9464 22.7053 12.585 22.8659 12.3323 23.187C12.0796 23.5007 11.9534 23.9302 11.9534 24.4754Z" fill="#FFBA44"/>
<path d="M20.0476 20.8322V24.2278C20.0476 24.5057 20.1035 24.7271 20.2155 24.8915C20.3328 25.0504 20.5194 25.1298 20.7753 25.1298C21.0312 25.1298 21.2204 25.0504 21.343 24.8915C21.4657 24.7271 21.527 24.5057 21.527 24.2278V20.8322H23.2942V24.2278C23.2942 24.8007 23.1824 25.2915 22.9584 25.7001C22.7345 26.1028 22.428 26.4064 22.0388 26.6106C21.6496 26.8149 21.2151 26.917 20.7353 26.917C20.2554 26.917 19.829 26.8149 19.4558 26.6106C19.088 26.4064 18.8 26.1028 18.5922 25.7001C18.3842 25.2972 18.2803 24.8064 18.2803 24.2278V20.8322H20.0476Z" fill="#FFBA44"/>
<path d="M20.0476 20.8322V24.2278C20.0476 24.5057 20.1035 24.7271 20.2155 24.8915C20.3328 25.0504 20.5194 25.1298 20.7753 25.1298C21.0312 25.1298 21.2204 25.0504 21.343 24.8915C21.4657 24.7271 21.527 24.5057 21.527 24.2278V20.8322H23.2942V24.2278C23.2942 24.8007 23.1824 25.2915 22.9584 25.7001C22.7345 26.1028 22.428 26.4064 22.0388 26.6106C21.6496 26.8149 21.2151 26.917 20.7353 26.917C20.2554 26.917 19.829 26.8149 19.4558 26.6106C19.088 26.4064 18.8 26.1028 18.5922 25.7001C18.3842 25.2972 18.2803 24.8064 18.2803 24.2278V20.8322H20.0476Z" fill="#FFBA44"/>
<path d="M26.395 22.3384V23.0789H28.1542V24.5001H26.395V25.3511H28.3941V26.8574H24.6196V20.8322H28.3941V22.3384H26.395Z" fill="#FFBA44"/>
<path d="M26.395 22.3384V23.0789H28.1542V24.5001H26.395V25.3511H28.3941V26.8574H24.6196V20.8322H28.3941V22.3384H26.395Z" fill="#FFBA44"/>
<path d="M31.8383 26.917C31.1612 26.917 30.6015 26.7496 30.159 26.415C29.7218 26.0744 29.4846 25.5781 29.4473 24.9256H31.3345C31.3612 25.2716 31.5051 25.4448 31.7663 25.4448C31.8623 25.4448 31.9422 25.422 32.0063 25.3766C32.0755 25.3256 32.1102 25.249 32.1102 25.1468C32.1102 25.005 32.0382 24.8915 31.8943 24.8064C31.7504 24.7156 31.5264 24.6136 31.2225 24.5001C30.86 24.3639 30.5588 24.2306 30.3189 24.1001C30.0844 23.9696 29.8818 23.7795 29.7112 23.5299C29.5405 23.2802 29.4579 22.9597 29.4633 22.5683C29.4633 22.1767 29.5565 21.8448 29.7431 21.5725C29.9351 21.2945 30.1936 21.0845 30.5189 20.9427C30.8494 20.8009 31.2199 20.73 31.6304 20.73C32.3234 20.73 32.8725 20.9002 33.2777 21.2406C33.6882 21.581 33.9042 22.0605 33.9255 22.6788H32.0142C32.0089 22.5086 31.9689 22.3866 31.8943 22.313C31.8196 22.2392 31.729 22.2023 31.6224 22.2023C31.5478 22.2023 31.4865 22.2307 31.4384 22.2874C31.3905 22.3384 31.3665 22.4122 31.3665 22.5086C31.3665 22.6448 31.4358 22.7583 31.5744 22.8491C31.7183 22.9342 31.945 23.0392 32.2541 23.164C32.6113 23.3058 32.9046 23.4419 33.1338 23.5724C33.3683 23.7029 33.5709 23.8845 33.7415 24.1171C33.9122 24.3498 33.9974 24.642 33.9974 24.9937C33.9974 25.3625 33.9122 25.6943 33.7415 25.9893C33.5709 26.2787 33.323 26.5057 32.9978 26.6703C32.6727 26.8347 32.2861 26.917 31.8383 26.917Z" fill="#FFBA44"/>
<path d="M31.8383 26.917C31.1612 26.917 30.6015 26.7496 30.159 26.415C29.7218 26.0744 29.4846 25.5781 29.4473 24.9256H31.3345C31.3612 25.2716 31.5051 25.4448 31.7663 25.4448C31.8623 25.4448 31.9422 25.422 32.0063 25.3766C32.0755 25.3256 32.1102 25.249 32.1102 25.1468C32.1102 25.005 32.0382 24.8915 31.8943 24.8064C31.7504 24.7156 31.5264 24.6136 31.2225 24.5001C30.86 24.3639 30.5588 24.2306 30.3189 24.1001C30.0844 23.9696 29.8818 23.7795 29.7112 23.5299C29.5405 23.2802 29.4579 22.9597 29.4633 22.5683C29.4633 22.1767 29.5565 21.8448 29.7431 21.5725C29.9351 21.2945 30.1936 21.0845 30.5189 20.9427C30.8494 20.8009 31.2199 20.73 31.6304 20.73C32.3234 20.73 32.8725 20.9002 33.2777 21.2406C33.6882 21.581 33.9042 22.0605 33.9255 22.6788H32.0142C32.0089 22.5086 31.9689 22.3866 31.8943 22.313C31.8196 22.2392 31.729 22.2023 31.6224 22.2023C31.5478 22.2023 31.4865 22.2307 31.4384 22.2874C31.3905 22.3384 31.3665 22.4122 31.3665 22.5086C31.3665 22.6448 31.4358 22.7583 31.5744 22.8491C31.7183 22.9342 31.945 23.0392 32.2541 23.164C32.6113 23.3058 32.9046 23.4419 33.1338 23.5724C33.3683 23.7029 33.5709 23.8845 33.7415 24.1171C33.9122 24.3498 33.9974 24.642 33.9974 24.9937C33.9974 25.3625 33.9122 25.6943 33.7415 25.9893C33.5709 26.2787 33.323 26.5057 32.9978 26.6703C32.6727 26.8347 32.2861 26.917 31.8383 26.917Z" fill="#FFBA44"/>
<path d="M41.3855 20.7587V22.7305H39.4064V28.6907H37.0694V22.7305H35.1113V20.7587H41.3855Z" fill="#FFBA44"/>
<path d="M41.3855 20.7587V22.7305H39.4064V28.6907H37.0694V22.7305H35.1113V20.7587H41.3855Z" fill="#FFBA44"/>
<path fill-rule="evenodd" clip-rule="evenodd" d="M25.4747 0L45 7.69598V28.743C45 31.0696 44.2068 33.7979 42.9989 36.2874C41.789 38.7807 40.1247 41.1138 38.3092 42.6259C36.5353 44.1033 34.5232 45.2968 32.4095 46.4198C31.4554 46.9267 30.4743 47.4225 29.4827 47.9235C29.3754 47.9777 29.2679 48.032 29.1603 48.0865C28.0568 48.6444 26.9404 49.2122 25.8192 49.8188L25.5001 50L25.1809 49.8188C24.0598 49.2122 22.9433 48.6444 21.8397 48.0865C21.7321 48.032 21.6247 47.9777 21.5174 47.9235C20.5257 47.4225 19.5447 46.9267 18.5906 46.4198C16.4768 45.2968 14.4648 44.1033 12.6908 42.6259C10.8753 41.1138 9.211 38.7807 8.00118 36.2874C6.79317 33.7979 6 31.0696 6 28.743V7.69641L25.4747 0ZM25.5001 48.4421C26.5472 47.8807 27.5866 47.3525 28.6032 46.8384C28.7109 46.784 28.8182 46.7297 28.9252 46.6757C29.9186 46.1737 30.8878 45.6839 31.8295 45.1836C33.9166 44.0747 35.8375 42.9299 37.509 41.5378C39.1391 40.1801 40.6956 38.0227 41.8452 35.6534C42.9968 33.2803 43.7017 30.7741 43.7017 28.743V8.65765L25.4753 1.47367L7.29831 8.65722V28.743C7.29831 30.7741 8.0032 33.2803 9.15476 35.6534C10.3044 38.0227 11.8609 40.1801 13.491 41.5378C15.1626 42.9299 17.0833 44.0747 19.1706 45.1836C20.1122 45.6839 21.0814 46.1737 22.0748 46.6757C22.1818 46.7297 22.2892 46.784 22.3968 46.8384C23.4134 47.3525 24.4528 47.8807 25.5001 48.4421Z" fill="#FFBA44"/>
<path fill-rule="evenodd" clip-rule="evenodd" d="M25.4753 1.47363L43.7017 8.65761V28.743C43.7017 30.7424 43.0187 33.2021 41.899 35.5421C41.8811 35.5792 41.8633 35.6163 41.8452 35.6534C40.6956 38.0227 39.1391 40.1801 37.509 41.5378C35.8375 42.9299 33.9166 44.0747 31.8295 45.1836C30.8889 45.6834 29.9195 46.1733 28.9258 46.6753L28.9254 46.6756L28.9252 46.6757L28.6032 46.8384C27.8761 47.206 27.1374 47.5809 26.3925 47.97C26.148 48.0978 25.9028 48.227 25.6572 48.3581C25.6048 48.386 25.5524 48.4139 25.5001 48.4421C25.2018 48.2822 24.9041 48.125 24.6076 47.97C23.8626 47.5809 23.1239 47.206 22.3968 46.8384C22.3062 46.7926 22.2157 46.7469 22.1253 46.7011L22.0748 46.6757L22.0746 46.6756L22.0742 46.6753C21.2048 46.236 20.3538 45.806 19.5246 45.3706C19.4061 45.3083 19.2881 45.2461 19.1706 45.1836C17.116 44.0921 15.2226 42.9657 13.5695 41.6028C13.5433 41.5811 13.5171 41.5595 13.491 41.5378C11.8609 40.1801 10.3044 38.0227 9.15479 35.6534C8.00323 33.2803 7.29834 30.7741 7.29834 28.743V8.65718L25.4753 1.47363ZM42.4034 28.743V9.61928L25.4759 2.94732L8.59675 9.61799V28.743C8.59675 30.4785 9.21327 32.7627 10.3083 35.0194C11.3978 37.2645 12.8465 39.2464 14.2911 40.4496C15.8603 41.7565 17.6899 42.8527 19.7504 43.9474C20.6788 44.4406 21.6361 44.9245 22.6317 45.4275L22.954 45.5904C23.6865 45.9607 24.4368 46.3415 25.196 46.7382L25.5001 46.8646L25.8041 46.7382C26.5633 46.3415 27.3136 45.9607 28.0461 45.5904L28.3683 45.4275C29.3639 44.9245 30.3213 44.4406 31.2496 43.9474C33.3101 42.8527 35.1397 41.7565 36.7089 40.4496C38.1535 39.2464 39.6022 37.2645 40.6917 35.0194C41.7868 32.7627 42.4034 30.4785 42.4034 28.743Z" fill="#FFBA44"/>
<path d="M38.3452 16.9972C38.5113 16.8552 38.6414 16.739 38.7357 16.6485C38.8298 16.5566 38.909 16.4613 38.9731 16.3624C39.0385 16.2622 39.0712 16.164 39.0712 16.068C39.0712 15.9775 39.0503 15.9064 39.0084 15.855C38.9679 15.802 38.9018 15.7756 38.8102 15.7756C38.7213 15.7756 38.652 15.8056 38.6022 15.8655C38.5539 15.9239 38.5276 16.0025 38.5238 16.1013H38.3511C38.3563 15.9455 38.4008 15.825 38.4845 15.7401C38.5683 15.6552 38.6761 15.6127 38.8083 15.6127C38.943 15.6127 39.0496 15.6524 39.1281 15.7318C39.2079 15.8111 39.2478 15.9204 39.2478 16.0596C39.2478 16.1751 39.2151 16.2879 39.1497 16.3978C39.0856 16.5065 39.0123 16.6026 38.9299 16.686C38.8475 16.7682 38.7422 16.8642 38.614 16.9742H39.289V17.1329H38.3452V16.9972ZM39.6327 16.3791C39.6327 16.1396 39.6693 15.9531 39.7426 15.8195C39.8159 15.6845 39.9441 15.6169 40.1272 15.6169C40.3091 15.6169 40.4366 15.6845 40.5098 15.8195C40.5831 15.9531 40.6197 16.1396 40.6197 16.3791C40.6197 16.6227 40.5831 16.812 40.5098 16.9471C40.4366 17.0821 40.3091 17.1496 40.1272 17.1496C39.9441 17.1496 39.8159 17.0821 39.7426 16.9471C39.6693 16.812 39.6327 16.6227 39.6327 16.3791ZM40.4432 16.3791C40.4432 16.258 40.4352 16.1557 40.4195 16.0721C40.4051 15.9872 40.3744 15.9191 40.3273 15.8675C40.2816 15.8159 40.2148 15.7903 40.1272 15.7903C40.0383 15.7903 39.9702 15.8159 39.9231 15.8675C39.8773 15.9191 39.8466 15.9872 39.8309 16.0721C39.8165 16.1557 39.8093 16.258 39.8093 16.3791C39.8093 16.5044 39.8165 16.6095 39.8309 16.6945C39.8466 16.7793 39.8773 16.8475 39.9231 16.8991C39.9702 16.9505 40.0383 16.9763 40.1272 16.9763C40.2148 16.9763 40.2816 16.9505 40.3273 16.8991C40.3744 16.8475 40.4051 16.7793 40.4195 16.6945C40.4352 16.6095 40.4432 16.5044 40.4432 16.3791Z" fill="#FFBA44"/>
<path d="M23.2044 9.07605C22.8348 8.68291 22.8348 8.04524 23.2044 7.65199L24.7594 5.99721C25.1289 5.60396 25.728 5.60396 26.0975 5.99721L27.6524 7.65199C28.022 8.04524 28.022 8.68291 27.6524 9.07605L26.0975 10.7309C25.728 11.1242 25.1289 11.1242 24.7594 10.7309L23.2044 9.07605Z" fill="#FFBA44"/>
<path fill-rule="evenodd" clip-rule="evenodd" d="M27.1766 8.23516C27.1766 8.04102 27.0634 7.85571 26.8362 7.85571C26.6778 7.85571 26.5939 7.91439 26.5383 7.99615C26.4822 7.91245 26.3914 7.85571 26.2657 7.85571C26.1622 7.85571 26.0857 7.91159 26.0355 7.97889V7.88613H25.7788V8.84252H26.0355V8.29578L26.0356 8.29599C26.0356 8.20485 26.1068 8.12644 26.1925 8.12644C26.2767 8.12644 26.347 8.19957 26.3493 8.28197V8.84241H26.6061V8.29599C26.6061 8.20485 26.6773 8.12644 26.763 8.12644C26.8485 8.12644 26.9199 8.20205 26.9199 8.28597V8.84241H27.1766V8.23527H27.1763L27.1766 8.23516ZM24.1337 8.8573C24.2256 8.8573 24.3103 8.82731 24.3811 8.77716V8.8422H24.6379V7.88624H24.3811V7.95354C24.3103 7.90199 24.2256 7.8706 24.1337 7.8706C23.8765 7.8706 23.668 8.09149 23.668 8.36395C23.668 8.6364 23.8765 8.8573 24.1337 8.8573ZM25.6444 8.15276L25.4092 8.26892C25.3792 8.19709 25.316 8.13917 25.2305 8.13917C25.1089 8.13917 25.0148 8.23991 25.0148 8.36406C25.0148 8.48831 25.1089 8.58905 25.2305 8.58905C25.3179 8.58905 25.3821 8.53695 25.4113 8.46145L25.6457 8.57913C25.5736 8.74372 25.419 8.8573 25.2262 8.8573C24.9666 8.8573 24.7627 8.6364 24.7627 8.36395C24.7627 8.09149 24.976 7.8706 25.2262 7.8706C25.4071 7.8706 25.5687 7.9859 25.6444 8.15276ZM24.1566 8.60803C24.2886 8.60803 24.3811 8.50352 24.3811 8.36406C24.3811 8.2247 24.2886 8.12019 24.1566 8.12019C24.0248 8.12019 23.9226 8.22934 23.9226 8.36406C23.9226 8.49888 24.0248 8.60803 24.1566 8.60803Z" fill="#FFBA44"/>
<path d="M18.2538 9.13166C18.0996 8.9676 18.0996 8.70162 18.2538 8.53757L18.9025 7.84716C19.0567 7.68311 19.3066 7.68311 19.4607 7.84716L20.1095 8.53757C20.2636 8.70162 20.2636 8.9676 20.1095 9.13166L19.4607 9.82207C19.3066 9.98612 19.0567 9.98612 18.9025 9.82207L18.2538 9.13166Z" fill="#FFBA44"/>
<path d="M30.7201 9.13166C30.566 8.9676 30.566 8.70162 30.7201 8.53757L31.3689 7.84716C31.523 7.68311 31.773 7.68311 31.9271 7.84716L32.5759 8.53757C32.73 8.70162 32.73 8.9676 32.5759 9.13166L31.9271 9.82207C31.773 9.98612 31.523 9.98612 31.3689 9.82207L30.7201 9.13166Z" fill="#FFBA44"/>
<path d="M13.3703 10.308C13.2926 10.2254 13.2926 10.0913 13.3703 10.0087L13.6971 9.66084C13.7747 9.57822 13.9007 9.57822 13.9784 9.66084L14.3052 10.0087C14.3829 10.0913 14.3829 10.2254 14.3052 10.308L13.9784 10.6559C13.9007 10.7386 13.7747 10.7386 13.6971 10.6559L13.3703 10.308Z" fill="#FFBA44"/>
<path d="M36.4601 10.3963C36.3824 10.3136 36.3824 10.1797 36.4601 10.0969L36.7869 9.7491C36.8646 9.66648 36.9905 9.66648 37.0682 9.7491L37.395 10.0969C37.4728 10.1797 37.4728 10.3136 37.395 10.3963L37.0682 10.7442C36.9905 10.8268 36.8646 10.8268 36.7869 10.7442L36.4601 10.3963Z" fill="#FFBA44"/>
<path d="M10.7622 16.9972C10.9284 16.8552 11.0585 16.739 11.1527 16.6485C11.2468 16.5566 11.326 16.4613 11.3902 16.3624C11.4555 16.2622 11.4883 16.164 11.4883 16.068C11.4883 15.9775 11.4673 15.9064 11.4254 15.855C11.3849 15.802 11.3188 15.7756 11.2273 15.7756C11.1383 15.7756 11.069 15.8056 11.0193 15.8655C10.9709 15.9239 10.9447 16.0025 10.9408 16.1013H10.7681C10.7733 15.9455 10.8178 15.825 10.9015 15.7401C10.9853 15.6552 11.0932 15.6127 11.2253 15.6127C11.3601 15.6127 11.4667 15.6524 11.5451 15.7318C11.6249 15.8111 11.6648 15.9204 11.6648 16.0596C11.6648 16.1751 11.6321 16.2879 11.5667 16.3978C11.5027 16.5065 11.4294 16.6026 11.347 16.686C11.2646 16.7682 11.1593 16.8642 11.0311 16.9742H11.7061V17.1329H10.7622V16.9972ZM12.0497 16.3791C12.0497 16.1396 12.0864 15.9531 12.1596 15.8195C12.2329 15.6845 12.3611 15.6169 12.5442 15.6169C12.7261 15.6169 12.8536 15.6845 12.9268 15.8195C13.0001 15.9531 13.0367 16.1396 13.0367 16.3791C13.0367 16.6227 13.0001 16.812 12.9268 16.9471C12.8536 17.0821 12.7261 17.1496 12.5442 17.1496C12.3611 17.1496 12.2329 17.0821 12.1596 16.9471C12.0864 16.812 12.0497 16.6227 12.0497 16.3791ZM12.8602 16.3791C12.8602 16.258 12.8523 16.1557 12.8366 16.0721C12.8222 15.9872 12.7914 15.9191 12.7444 15.8675C12.6986 15.8159 12.6319 15.7903 12.5442 15.7903C12.4553 15.7903 12.3872 15.8159 12.3402 15.8675C12.2944 15.9191 12.2637 15.9872 12.248 16.0721C12.2336 16.1557 12.2264 16.258 12.2264 16.3791C12.2264 16.5044 12.2336 16.6095 12.248 16.6945C12.2637 16.7793 12.2944 16.8475 12.3402 16.8991C12.3872 16.9505 12.4553 16.9763 12.5442 16.9763C12.6319 16.9763 12.6986 16.9505 12.7444 16.8991C12.7914 16.8475 12.8222 16.7793 12.8366 16.6945C12.8523 16.6095 12.8602 16.5044 12.8602 16.3791Z" fill="#FFBA44"/>
</svg>
