<svg width="50" height="50" viewBox="0 0 50 50" fill="none" xmlns="http://www.w3.org/2000/svg">
<g clip-path="url(#clip0)">
<path d="M39.5066 0.577988L44.862 20.521C44.9654 20.907 44.7624 21.3093 44.3914 21.4523C38.8183 23.6152 35.9069 22.8408 32.8265 22.0214L32.825 22.021C31.0788 21.5562 29.2999 21.0616 26.8038 21.0929C26.5143 21.0949 26.1682 21.1073 25.8905 21.1205V15.5167H26.7452V11.1267H28.1503V10.0622H24.0483V11.1267H25.4534V15.5167H25.8623V21.1205C24.0415 21.2158 22.4733 21.5473 21.1146 22.039V15.5545C21.7074 15.5398 22.2177 15.3718 22.6454 15.0505C23.0936 14.7086 23.3932 14.2424 23.5443 13.6519H22.1241C22.0183 13.8798 21.8673 14.0534 21.6708 14.1725C21.4795 14.2916 21.2604 14.3512 21.0136 14.3512C20.6158 14.3512 20.2934 14.2088 20.0467 13.9239C19.7999 13.639 19.6765 13.2582 19.6765 12.7817C19.6765 12.3051 19.7999 11.9244 20.0467 11.6395C20.2934 11.3546 20.6158 11.2121 21.0136 11.2121C21.2604 11.2121 21.4795 11.2717 21.6708 11.3908C21.8673 11.51 22.0183 11.6835 22.1241 11.9114H23.5443C23.3932 11.3209 23.0936 10.8547 22.6454 10.5128C22.1971 10.1709 21.6583 10 21.0287 10C20.515 10 20.0542 10.1191 19.6463 10.3574C19.2434 10.5905 18.9286 10.9194 18.702 11.3442C18.4754 11.7638 18.3621 12.2429 18.3621 12.7817C18.3621 13.3204 18.4754 13.7995 18.702 14.2191C18.9286 14.6387 19.2434 14.9676 19.6463 15.2059C20.0533 15.4385 20.5794 15.555 21.0917 15.5556V22.039C16.6706 23.673 14.4224 27.0407 12.9693 29.3976L18.2375 49.0148C18.3496 49.432 18.1038 49.8609 17.6892 49.9727C17.6215 49.9914 17.5531 50 17.4862 50C17.1431 50 16.8289 49.7703 16.7356 49.4219L6.02402 9.53504C5.99368 9.42176 5.99446 9.30848 6.01313 9.19989C6.01857 9.16786 6.03491 9.14051 6.04424 9.10926C6.06758 9.0327 6.09636 8.9616 6.14069 8.89598C6.14925 8.88348 6.15003 8.86707 6.15936 8.85457C9.5336 4.46237 13.6437 0.317831 23.3627 2.02487C25.4594 2.39281 27.4284 2.67153 29.4092 2.63054V10.0622H28.7986V15.5167H30.0904V13.31H31.707V12.2766H30.0904V11.1267H32.2509V10.0622H29.4357V2.62888C32.1176 2.5627 34.9123 1.90607 38.3974 0.0881425C38.6051 -0.0204516 38.8532 -0.0298266 39.0687 0.0662674C39.2841 0.16158 39.4452 0.349862 39.5066 0.577988Z" fill="#FFBA44"/>
</g>
<defs>
<clipPath id="clip0">
<rect width="50" height="50" fill="white"/>
</clipPath>
</defs>
</svg>
