<svg width="50" height="50" viewBox="0 0 50 50" fill="none" xmlns="http://www.w3.org/2000/svg">
<path d="M13.306 13.5629C13.306 7.17687 18.4828 2 24.8688 2C24.9064 2 24.944 2.00018 24.9815 2.00054V5.71321C23.9641 5.71036 22.7989 5.90296 21.804 6.31731C18.1424 7.84227 16.2685 11.8155 17.2746 15.5455C17.3692 15.8964 17.4894 16.2452 17.6359 16.5896C18.6503 18.9733 20.7277 20.6091 23.0775 21.1912C23.696 21.3444 24.3332 21.4245 24.975 21.4262V15.5231V14.5422C24.097 14.5308 23.1866 14.1362 22.6011 13.392C21.5798 12.094 21.803 10.2244 23.0996 9.21608C23.6202 8.8113 24.3888 8.60685 25.0039 8.59111C25.8688 8.61323 26.7196 9.0072 27.2967 9.74056C28.318 11.0385 28.0948 12.9082 26.7981 13.9165C26.2613 14.3339 25.6248 14.5381 24.9905 14.5422V15.523V21.4262C25.5457 21.4234 26.1052 21.3618 26.6604 21.2377C27.103 21.1388 27.5429 21.0002 27.9755 20.82C30.3491 19.8315 31.9715 17.8141 32.5451 15.5011C32.9395 13.9103 32.8379 12.1796 32.1435 10.5477C30.8839 7.58775 28.0266 5.78086 25.0039 5.71312L25.0041 2C31.3086 2.09445 36.4317 7.23588 36.4317 13.5629C36.4317 14.2195 36.3769 14.8634 36.2718 15.4902L38.261 15.4844C40.0599 15.4792 41.5223 16.9332 41.5276 18.7321L41.6066 45.5487C41.6119 47.3476 40.158 48.8101 38.3591 48.8153L25.9905 48.8514V44.0171H29.5918C29.9516 44.0171 30.2432 43.7255 30.2432 43.3657V41.0857C30.2432 40.7259 29.9516 40.4343 29.5918 40.4343H26.6604V36.8514H29.5918C29.9516 36.8514 30.2432 36.5598 30.2432 36.2V33.92C30.2432 33.5602 29.9516 33.2686 29.5918 33.2686H26.6604V24.9878V21.2377C26.1052 21.3618 25.5457 21.4234 24.9905 21.4262V15.523L24.975 15.5231V21.4262C24.3332 21.4245 23.696 21.3444 23.0775 21.1912V24.9878V43.3657C23.0775 43.7255 23.3692 44.0171 23.729 44.0171H25.967V48.8514L11.3457 48.8939C9.54681 48.8991 8.08425 47.4451 8.07896 45.6463L8.00001 18.8296C7.99471 17.0308 9.44869 15.5683 11.2476 15.563L13.4772 15.5565C13.3646 14.9089 13.306 14.2427 13.306 13.5629Z" fill="#FFBA44"/>
</svg>
