<svg width="200" height="200" viewBox="0 0 200 200" fill="none" xmlns="http://www.w3.org/2000/svg">
<path d="M39.0001 82.937C38.9781 75.757 44.7811 69.92 51.9611 69.899L147.521 69.623C154.701 69.602 160.539 75.406 160.56 82.586L160.798 162.951C160.819 170.131 155.016 175.968 147.837 175.989L52.2761 176.265C45.0971 176.286 39.2591 170.482 39.2381 163.302L39.0001 82.937Z" fill="#FFBA44"/>
<path d="M145.76 69.5C145.76 94.63 125.254 115.001 99.9581 115.001C74.6621 115.001 54.1561 94.63 54.1561 69.5C54.1561 44.371 74.6621 24 99.9581 24C125.254 24 145.76 44.371 145.76 69.5Z" fill="#FFBA44"/>
<path d="M100.505 95.7888C116.191 95.7888 128.807 83.1199 128.684 67.492C128.562 51.8641 115.747 39.1952 100.061 39.1952C84.3755 39.1952 71.7592 51.8641 71.8817 67.492C72.0043 83.1199 84.8193 95.7888 100.505 95.7888Z" fill="#242424"/>
<path d="M107.338 72.1186C107.338 67.9225 103.937 64.521 99.7406 64.521C95.5446 64.521 92.1431 67.9225 92.1431 72.1186V153.159C92.1431 157.355 95.5446 160.757 99.7406 160.757C103.937 160.757 107.338 157.355 107.338 153.159V72.1186Z" fill="#242424"/>
<path d="M117.334 122.769H99.8761C97.0042 122.769 94.676 125.097 94.676 127.969V130.231C94.676 133.103 97.0042 135.432 99.8761 135.432H117.334C120.206 135.432 122.534 133.103 122.534 130.231V127.969C122.534 125.097 120.206 122.769 117.334 122.769Z" fill="#242424"/>
<path d="M117.334 148.094H99.8761C97.0042 148.094 94.676 150.422 94.676 153.294V155.556C94.676 158.428 97.0042 160.757 99.8761 160.757H117.334C120.206 160.757 122.534 158.428 122.534 155.556V153.294C122.534 150.422 120.206 148.094 117.334 148.094Z" fill="#242424"/>
<path d="M100.428 69.4844C106.023 69.4844 110.532 64.9507 110.499 59.358C110.466 53.7653 105.904 49.2316 100.31 49.2316C94.7149 49.2316 90.2061 53.7653 90.2389 59.358C90.2718 64.9507 94.8338 69.4844 100.428 69.4844Z" fill="#FFBA44"/>
</svg>
